<svg width="25" height="25" viewBox="0 0 25 25" fill="none" xmlns="http://www.w3.org/2000/svg">
<path d="M12.5 2.71509C7 2.71509 2.5 7.20509 2.5 12.7351C2.5 17.7351 6.16 21.8851 10.94 22.6351V15.6351H8.4V12.7351H10.94V10.5251C10.94 8.01509 12.43 6.63509 14.72 6.63509C15.81 6.63509 16.95 6.82509 16.95 6.82509V9.29509H15.69C14.45 9.29509 14.06 10.0651 14.06 10.8551V12.7351H16.84L16.39 15.6351H14.06V22.6351C16.4164 22.2629 18.5622 21.0606 20.1099 19.2451C21.6576 17.4297 22.5054 15.1207 22.5 12.7351C22.5 7.20509 18 2.71509 12.5 2.71509Z" fill="#1877F2"/>
</svg>
