<svg width="24" height="25" viewBox="0 0 24 25" fill="none" xmlns="http://www.w3.org/2000/svg">
<path d="M21.8055 10.7165H21V10.675H12V14.675H17.6515C16.827 17.0035 14.6115 18.675 12 18.675C8.6865 18.675 6 15.9885 6 12.675C6 9.36149 8.6865 6.67499 12 6.67499C13.5295 6.67499 14.921 7.25199 15.9805 8.19449L18.809 5.36599C17.023 3.70149 14.634 2.67499 12 2.67499C6.4775 2.67499 2 7.15249 2 12.675C2 18.1975 6.4775 22.675 12 22.675C17.5225 22.675 22 18.1975 22 12.675C22 12.0045 21.931 11.35 21.8055 10.7165Z" fill="#FFC107"/>
<path d="M3.15308 8.02049L6.43858 10.43C7.32758 8.22899 9.48058 6.67499 12.0001 6.67499C13.5296 6.67499 14.9211 7.25199 15.9806 8.19449L18.8091 5.36599C17.0231 3.70149 14.6341 2.67499 12.0001 2.67499C8.15908 2.67499 4.82808 4.84349 3.15308 8.02049Z" fill="#FF3D00"/>
<path d="M11.9999 22.675C14.5829 22.675 16.9299 21.6865 18.7044 20.079L15.6094 17.46C14.5717 18.2492 13.3036 18.676 11.9999 18.675C9.39891 18.675 7.19041 17.0165 6.35841 14.702L3.09741 17.2145C4.75241 20.453 8.11341 22.675 11.9999 22.675Z" fill="#4CAF50"/>
<path d="M21.8055 10.7165H21V10.675H12V14.675H17.6515C17.2571 15.7832 16.5467 16.7516 15.608 17.4605L15.6095 17.4595L18.7045 20.0785C18.4855 20.2775 22 17.675 22 12.675C22 12.0045 21.931 11.35 21.8055 10.7165Z" fill="#1976D2"/>
</svg>
