<svg width="24" height="24" viewBox="0 0 24 24" fill="none" xmlns="http://www.w3.org/2000/svg">
<path d="M10.7889 18C10.4807 18 10.1897 17.9265 9.92439 17.7878C9.34237 17.4613 9 16.8084 9 15.9841V14.0254C9 13.2011 9.34237 12.54 9.93295 12.2136C10.5235 11.8871 11.2939 11.9361 12.0385 12.3523L13.8188 13.3317C14.5635 13.7398 15 14.3519 15 15.0048C15 15.6577 14.5635 16.2698 13.8103 16.6779L12.03 17.6572C11.6191 17.8857 11.1912 18 10.7889 18ZM10.7974 13.2256C10.7118 13.2256 10.6348 13.2419 10.5749 13.2746C10.3951 13.3725 10.2839 13.65 10.2839 14.0254V15.9841C10.2839 16.3514 10.3951 16.6289 10.5749 16.735C10.7546 16.8329 11.0628 16.784 11.3966 16.5962L13.1769 15.6169C13.5107 15.4292 13.7161 15.2006 13.7161 15.0048C13.7161 14.8089 13.5193 14.5804 13.1769 14.3927L11.3966 13.4133C11.174 13.2909 10.9601 13.2256 10.7974 13.2256Z" fill="white"/>
<path d="M17 22.75H7C3.35 22.75 1.25 20.65 1.25 17V13C1.25 9.4 3.17003 8.06 4.78003 7.56C5.43003 7.35 6.18 7.25 7 7.25H17C17.82 7.25 18.57 7.36001 19.23 7.57001C20.83 8.06001 22.75 9.41 22.75 13V17C22.75 20.65 20.65 22.75 17 22.75ZM7 8.75C6.34 8.75 5.73998 8.83 5.22998 9C3.55998 9.51 2.75 10.82 2.75 13V17C2.75 19.86 4.14 21.25 7 21.25H17C19.86 21.25 21.25 19.86 21.25 17V13C21.25 10.82 20.44 9.51 18.78 9C18.26 8.83 17.66 8.75 17 8.75H7Z" fill="white"/>
<path d="M19 9.03003C18.92 9.03003 18.85 9.01999 18.77 8.98999C18.26 8.82999 17.66 8.73999 17 8.73999H7C6.34 8.73999 5.73998 8.81999 5.22998 8.98999C4.99998 9.05999 4.75 9.02 4.56 8.88C4.37 8.74 4.25 8.51002 4.25 8.27002V7C4.25 5.48 5.48 4.25 7 4.25H17C18.52 4.25 19.75 5.48 19.75 7V8.28003C19.75 8.52003 19.64 8.74001 19.44 8.89001C19.31 8.98001 19.16 9.03003 19 9.03003ZM7 5.75C6.31 5.75 5.75 6.31 5.75 7V7.34003C6.14 7.28003 6.56 7.25 7 7.25H17C17.44 7.25 17.86 7.28003 18.25 7.34003V7C18.25 6.31 17.69 5.75 17 5.75H7Z" fill="white"/>
<path d="M16 5.75H8C7.59 5.75 7.25 5.41 7.25 5V3.51001C7.25 2.26001 8.26001 1.25 9.51001 1.25H14.49C15.74 1.25 16.75 2.26001 16.75 3.51001V5C16.75 5.41 16.41 5.75 16 5.75ZM8.75 4.25H15.25V3.51001C15.25 3.09001 14.91 2.75 14.49 2.75H9.51001C9.09001 2.75 8.75 3.09001 8.75 3.51001V4.25Z" fill="white"/>
</svg>
